<!-- Generated by IcoMoon.io -->
<svg version="1.1" xmlns="http://www.w3.org/2000/svg" width="32" height="32" viewBox="0 0 32 32">
<title>logo_desk</title>
<path fill="#8baa36" d="M8.727 0h14.545c4.82 0 8.727 3.907 8.727 8.727v14.545c0 4.82-3.907 8.727-8.727 8.727h-14.545c-4.82 0-8.727-3.907-8.727-8.727v-14.545c0-4.82 3.907-8.727 8.727-8.727z"></path>
<path fill="none" stroke="#fafafa" stroke-linejoin="round" stroke-linecap="round" stroke-miterlimit="4" stroke-width="1.4545" d="M7.273 7.347v3.966c0 1.132 0.494 2.135 1.26 2.784 0.375 0.317 0.622 0.746 0.622 1.221v6.62c0 0.736 0.633 1.333 1.412 1.333s1.412-0.597 1.412-1.333v-6.62c0-0.476 0.248-0.904 0.622-1.221 0.766-0.649 1.26-1.652 1.26-2.784v0"></path>
<path fill="none" stroke="#fafafa" stroke-linejoin="round" stroke-linecap="round" stroke-miterlimit="4" stroke-width="1.4545" d="M10.567 11.717v-4.444"></path>
<path fill="none" stroke="#fafafa" stroke-linejoin="round" stroke-linecap="round" stroke-miterlimit="4" stroke-width="1.4545" d="M23.273 8.208c0-0.491-0.422-0.889-0.941-0.889h-0.941c-1.559 0-2.823 1.194-2.823 2.667v5.333c0 1.159 0.788 2.136 1.882 2.503v4.117c0 0.736 0.633 1.333 1.412 1.333s1.412-0.597 1.412-1.333v-13.732z"></path>
</svg>
